<?xml version="1.0" encoding="UTF-8" standalone="no"?>
<!-- Created with Inkscape (http://www.inkscape.org/) -->

<svg
   xmlns:dc="http://purl.org/dc/elements/1.1/"
   xmlns:cc="http://creativecommons.org/ns#"
   xmlns:rdf="http://www.w3.org/1999/02/22-rdf-syntax-ns#"
   xmlns:svg="http://www.w3.org/2000/svg"
   xmlns="http://www.w3.org/2000/svg"
   xmlns:sodipodi="http://sodipodi.sourceforge.net/DTD/sodipodi-0.dtd"
   xmlns:inkscape="http://www.inkscape.org/namespaces/inkscape"
   width="158.04443mm"
   height="131.70369mm"
   viewBox="0 0 158.04443 131.70369"
   version="1.1"
   id="svg8"
   inkscape:version="0.92.4 (5da689c313, 2019-01-14)"
   sodipodi:docname="workspace_creation_process_V2.svg">
  <defs
     id="defs2">
    <clipPath
       id="clipPath831"
       clipPathUnits="userSpaceOnUse">
      <path
         style="clip-rule:evenodd"
         inkscape:connector-curvature="0"
         id="path829"
         d="M 0,0 H 1866.6666 V 1555.5555 H 0 Z" />
    </clipPath>
    <clipPath
       id="clipPath843"
       clipPathUnits="userSpaceOnUse">
      <path
         style="clip-rule:evenodd"
         inkscape:connector-curvature="0"
         id="path841"
         d="M 0,0 H 1866.6666 V 1555.5555 H 0 Z" />
    </clipPath>
  </defs>
  <sodipodi:namedview
     id="base"
     pagecolor="#ffffff"
     bordercolor="#666666"
     borderopacity="1.0"
     inkscape:pageopacity="0.0"
     inkscape:pageshadow="2"
     inkscape:zoom="0.35"
     inkscape:cx="-604.19049"
     inkscape:cy="200.31744"
     inkscape:document-units="mm"
     inkscape:current-layer="layer1"
     showgrid="false"
     fit-margin-top="0"
     fit-margin-left="0"
     fit-margin-right="0"
     fit-margin-bottom="0"
     inkscape:window-width="3074"
     inkscape:window-height="1755"
     inkscape:window-x="113"
     inkscape:window-y="-13"
     inkscape:window-maximized="1" />
  <metadata
     id="metadata5">
    <rdf:RDF>
      <cc:Work
         rdf:about="">
        <dc:format>image/svg+xml</dc:format>
        <dc:type
           rdf:resource="http://purl.org/dc/dcmitype/StillImage" />
        <dc:title></dc:title>
      </cc:Work>
    </rdf:RDF>
  </metadata>
  <g
     inkscape:label="Calque 1"
     inkscape:groupmode="layer"
     id="layer1"
     transform="translate(-20.007544,-70.1303)">
    <g
       transform="matrix(0.08466666,0,0,0.08466666,20.007544,70.1303)"
       inkscape:label="workspace_creation_process_V2"
       id="g823">
      <g
         id="g825">
        <g
           clip-path="url(#clipPath831)"
           id="g827">
          <g
             transform="scale(2.9914529)"
             id="g833">
            <path
               inkscape:connector-curvature="0"
               id="path835"
               style="fill:#ffffff;fill-opacity:1;fill-rule:nonzero;stroke:none"
               d="M 0,0 H 624 V 520 H 0 Z" />
          </g>
        </g>
      </g>
      <g
         id="g837">
        <g
           clip-path="url(#clipPath843)"
           id="g839">
          <g
             transform="matrix(2.9914529,0,0,2.9914529,1.4957265,1.4957265)"
             id="g845">
            <path
               inkscape:connector-curvature="0"
               id="path847"
               style="fill:#ffffff;fill-opacity:1;fill-rule:nonzero;stroke:none"
               d="m 381,169 c 3e-5,0.98253 -0.12839,1.96271 -0.38519,2.94052 -0.25684,0.9778 -0.64084,1.94853 -1.15201,2.91217 -0.51114,0.96367 -1.14703,1.91561 -1.90762,2.85584 -0.76056,0.94021 -1.64219,1.86419 -2.64487,2.77194 -1.00263,0.90776 -2.12149,1.79489 -3.3566,2.66141 -1.23511,0.86653 -2.5805,1.70826 -4.03616,2.5252 -1.45566,0.81696 -3.01456,1.6052 -4.6767,2.36472 -1.66217,0.75951 -3.41962,1.48663 -5.27231,2.18138 -1.85269,0.69476 -3.79172,1.35381 -5.81708,1.97713 -2.02536,0.6233 -4.12728,1.20788 -6.30584,1.75375 -2.17856,0.54588 -4.42319,1.0504 -6.73389,1.51355 -2.31073,0.46318 -4.67642,0.88277 -7.09708,1.25876 -2.42065,0.37601 -4.88461,0.70662 -7.39187,0.99185 -2.5073,0.2852 -5.04581,0.52365 -7.61557,0.71532 -2.56973,0.19169 -5.15836,0.33571 -7.76584,0.43202 C 306.23392,198.95186 303.62012,199 301,199 c -2.62009,0 -5.23389,-0.0481 -7.84137,-0.14444 -2.60751,-0.0963 -5.19614,-0.24031 -7.7659,-0.43201 -2.56973,-0.19166 -5.10825,-0.43011 -7.61554,-0.71533 -2.50729,-0.28523 -4.97125,-0.61584 -7.39194,-0.99185 -2.42065,-0.37599 -4.78634,-0.79558 -7.09704,-1.25874 -2.31073,-0.46317 -4.55536,-0.96769 -6.73389,-1.51357 -2.17851,-0.54587 -4.28044,-1.13045 -6.30578,-1.75375 -2.02536,-0.62332 -3.96439,-1.28237 -5.8171,-1.97713 -1.85267,-0.69475 -3.61011,-1.42187 -5.27228,-2.18138 -1.66218,-0.75952 -3.2211,-1.54776 -4.67677,-2.36472 -1.45564,-0.81694 -2.80101,-1.65867 -4.03612,-2.5252 -1.23509,-0.86652 -2.35398,-1.75365 -3.35666,-2.66141 -1.00267,-0.90775 -1.88427,-1.83173 -2.64485,-2.77196 -0.76057,-0.94021 -1.39645,-1.89215 -1.9076,-2.85582 -0.51116,-0.96364 -0.89513,-1.93437 -1.15194,-2.91217 C 221.1284,170.96271 221,169.98253 221,169 c 0,-0.98253 0.1284,-1.96269 0.38522,-2.94051 0.25681,-0.97779 0.64078,-1.94854 1.15194,-2.91221 0.51115,-0.96366 1.14701,-1.91559 1.90759,-2.85582 0.76057,-0.94023 1.64219,-1.86423 2.64486,-2.77199 1.00268,-0.90775 2.12157,-1.79488 3.35668,-2.66139 1.23511,-0.86653 2.58047,-1.70827 4.03612,-2.52521 1.45565,-0.81694 3.01457,-1.60516 4.67675,-2.36467 1.66217,-0.75951 3.41961,-1.48665 5.27228,-2.18141 1.85271,-0.69475 3.79174,-1.35379 5.81708,-1.97711 2.02536,-0.62331 4.12729,-1.2079 6.3058,-1.75379 2.17853,-0.54585 4.42316,-1.05035 6.73389,-1.51353 2.3107,-0.46317 4.67639,-0.88275 7.09704,-1.25876 2.42069,-0.37599 4.88465,-0.7066 7.39194,-0.99181 2.50729,-0.28521 5.04581,-0.52366 7.61554,-0.71536 2.56976,-0.19166 5.15839,-0.33566 7.7659,-0.43196 2.60748,-0.0963 5.22128,-0.14446 7.84137,-0.14447 2.62012,1e-5 5.23392,0.0482 7.84137,0.14447 2.60748,0.0963 5.19611,0.2403 7.76584,0.43196 2.56976,0.1917 5.10827,0.43015 7.61557,0.71536 2.50726,0.28521 4.97122,0.61582 7.39187,0.99181 2.42066,0.37601 4.78635,0.79559 7.09708,1.25876 2.3107,0.46318 4.55533,0.96768 6.73386,1.51353 2.17856,0.54589 4.28051,1.13048 6.30587,1.75379 2.02536,0.62332 3.96439,1.28236 5.81708,1.97711 1.85269,0.69476 3.61014,1.4219 5.27231,2.18141 1.66214,0.75951 3.22104,1.54773 4.67667,2.36467 1.45569,0.81694 2.80108,1.65868 4.03616,2.52521 1.23514,0.86651 2.354,1.75364 3.35663,2.66139 1.00268,0.90776 1.88431,1.83176 2.64487,2.77199 0.76059,0.94023 1.39648,1.89216 1.90762,2.85582 0.51117,0.96367 0.89517,1.93442 1.15201,2.91221 0.2568,0.97782 0.38522,1.95798 0.38519,2.94051 z" />
            <path
               inkscape:connector-curvature="0"
               id="path849"
               style="fill:none;stroke:#000000;stroke-width:1;stroke-linecap:butt;stroke-linejoin:miter;stroke-miterlimit:10;stroke-dasharray:none;stroke-opacity:1"
               d="m 381,169 c 3e-5,0.98253 -0.12839,1.96271 -0.38519,2.94052 -0.25684,0.9778 -0.64084,1.94853 -1.15201,2.91217 -0.51114,0.96367 -1.14703,1.91561 -1.90762,2.85584 -0.76056,0.94021 -1.64219,1.86419 -2.64487,2.77194 -1.00263,0.90776 -2.12149,1.79489 -3.3566,2.66141 -1.23511,0.86653 -2.5805,1.70826 -4.03616,2.5252 -1.45566,0.81696 -3.01456,1.6052 -4.6767,2.36472 -1.66217,0.75951 -3.41962,1.48663 -5.27231,2.18138 -1.85269,0.69476 -3.79172,1.35381 -5.81708,1.97713 -2.02536,0.6233 -4.12728,1.20788 -6.30584,1.75375 -2.17856,0.54588 -4.42319,1.0504 -6.73389,1.51355 -2.31073,0.46318 -4.67642,0.88277 -7.09708,1.25876 -2.42065,0.37601 -4.88461,0.70662 -7.39187,0.99185 -2.5073,0.2852 -5.04581,0.52365 -7.61557,0.71532 -2.56973,0.19169 -5.15836,0.33571 -7.76584,0.43202 C 306.23392,198.95186 303.62012,199 301,199 c -2.62009,0 -5.23389,-0.0481 -7.84137,-0.14444 -2.60751,-0.0963 -5.19614,-0.24031 -7.7659,-0.43201 -2.56973,-0.19166 -5.10825,-0.43011 -7.61554,-0.71533 -2.50729,-0.28523 -4.97125,-0.61584 -7.39194,-0.99185 -2.42065,-0.37599 -4.78634,-0.79558 -7.09704,-1.25874 -2.31073,-0.46317 -4.55536,-0.96769 -6.73389,-1.51357 -2.17851,-0.54587 -4.28044,-1.13045 -6.30578,-1.75375 -2.02536,-0.62332 -3.96439,-1.28237 -5.8171,-1.97713 -1.85267,-0.69475 -3.61011,-1.42187 -5.27228,-2.18138 -1.66218,-0.75952 -3.2211,-1.54776 -4.67677,-2.36472 -1.45564,-0.81694 -2.80101,-1.65867 -4.03612,-2.5252 -1.23509,-0.86652 -2.35398,-1.75365 -3.35666,-2.66141 -1.00267,-0.90775 -1.88427,-1.83173 -2.64485,-2.77196 -0.76057,-0.94021 -1.39645,-1.89215 -1.9076,-2.85582 -0.51116,-0.96364 -0.89513,-1.93437 -1.15194,-2.91217 C 221.1284,170.96271 221,169.98253 221,169 c 0,-0.98253 0.1284,-1.96269 0.38522,-2.94051 0.25681,-0.97779 0.64078,-1.94854 1.15194,-2.91221 0.51115,-0.96366 1.14701,-1.91559 1.90759,-2.85582 0.76057,-0.94023 1.64219,-1.86423 2.64486,-2.77199 1.00268,-0.90775 2.12157,-1.79488 3.35668,-2.66139 1.23511,-0.86653 2.58047,-1.70827 4.03612,-2.52521 1.45565,-0.81694 3.01457,-1.60516 4.67675,-2.36467 1.66217,-0.75951 3.41961,-1.48665 5.27228,-2.18141 1.85271,-0.69475 3.79174,-1.35379 5.81708,-1.97711 2.02536,-0.62331 4.12729,-1.2079 6.3058,-1.75379 2.17853,-0.54585 4.42316,-1.05035 6.73389,-1.51353 2.3107,-0.46317 4.67639,-0.88275 7.09704,-1.25876 2.42069,-0.37599 4.88465,-0.7066 7.39194,-0.99181 2.50729,-0.28521 5.04581,-0.52366 7.61554,-0.71536 2.56976,-0.19166 5.15839,-0.33566 7.7659,-0.43196 2.60748,-0.0963 5.22128,-0.14446 7.84137,-0.14447 2.62012,1e-5 5.23392,0.0482 7.84137,0.14447 2.60748,0.0963 5.19611,0.2403 7.76584,0.43196 2.56976,0.1917 5.10827,0.43015 7.61557,0.71536 2.50726,0.28521 4.97122,0.61582 7.39187,0.99181 2.42066,0.37601 4.78635,0.79559 7.09708,1.25876 2.3107,0.46318 4.55533,0.96768 6.73386,1.51353 2.17856,0.54589 4.28051,1.13048 6.30587,1.75379 2.02536,0.62332 3.96439,1.28236 5.81708,1.97711 1.85269,0.69476 3.61014,1.4219 5.27231,2.18141 1.66214,0.75951 3.22104,1.54773 4.67667,2.36467 1.45569,0.81694 2.80108,1.65868 4.03616,2.52521 1.23514,0.86651 2.354,1.75364 3.35663,2.66139 1.00268,0.90776 1.88431,1.83176 2.64487,2.77199 0.76059,0.94023 1.39648,1.89216 1.90762,2.85582 0.51117,0.96367 0.89517,1.93442 1.15201,2.91221 0.2568,0.97782 0.38522,1.95798 0.38519,2.94051 z" />
          </g>
          <g
             transform="matrix(2.9914529,0,0,2.9914529,789.74359,484.61539)"
             id="g851">
            <text
               id="text855"
               style="font-variant:normal;font-weight:normal;font-size:14px;font-family:Helvetica;-inkscape-font-specification:Helvetica;writing-mode:lr-tb;fill:#000000;fill-opacity:1;fill-rule:nonzero;stroke:none"
               transform="translate(0.640625,13)">
              <tspan
                 id="tspan853"
                 sodipodi:role="line"
                 y="0"
                 x="0 7.7861328 17.124023 28.013672 35.799805 47.461914 55.248047 62.248047 70.03418">FAQ_maker</tspan>
            </text>
          </g>
          <g
             transform="matrix(2.9914529,0,0,2.9914529,1.4957265,1.4957265)"
             id="g857">
            <path
               inkscape:connector-curvature="0"
               id="path859"
               style="fill:#ffe6cc;fill-opacity:1;fill-rule:nonzero;stroke:none"
               d="M 341,59 H 461 V 99 H 341 Z" />
            <path
               inkscape:connector-curvature="0"
               id="path861"
               style="fill:none;stroke:#d79b00;stroke-width:1;stroke-linecap:butt;stroke-linejoin:miter;stroke-miterlimit:10;stroke-dasharray:none;stroke-opacity:1"
               d="M 341,59 H 461 V 99 H 341 Z" />
          </g>
          <g
             transform="matrix(2.9914529,0,0,2.9914529,1073.9316,215.38461)"
             id="g863">
            <text
               id="text867"
               style="font-variant:normal;font-weight:normal;font-size:14px;font-family:Helvetica;-inkscape-font-specification:Helvetica;writing-mode:lr-tb;fill:#000000;fill-opacity:1;fill-rule:nonzero;stroke:none"
               transform="translate(0.96875,13)">
              <tspan
                 id="tspan865"
                 sodipodi:role="line"
                 y="0"
                 x="0 7.7861328 15.572266 19.461914 22.572266 26.461914 29.572266 37.358398 44.358398 52.144531 59.144531 62.254883 65.365234 68.475586 76.261719">entities_ﬁlling</tspan>
            </text>
          </g>
          <g
             transform="matrix(2.9914529,0,0,2.9914529,1.4957265,1.4957265)"
             id="g869">
            <path
               inkscape:connector-curvature="0"
               id="path871"
               style="fill:#ffffff;fill-opacity:1;fill-rule:nonzero;stroke:none"
               d="M 161,39 H 281 V 79 H 161 Z" />
            <path
               inkscape:connector-curvature="0"
               id="path873"
               style="fill:none;stroke:#000000;stroke-width:1;stroke-linecap:butt;stroke-linejoin:miter;stroke-miterlimit:10;stroke-dasharray:none;stroke-opacity:1"
               d="M 161,39 H 281 V 79 H 161 Z" />
            <path
               inkscape:connector-curvature="0"
               id="path875"
               style="fill:#ffffff;fill-opacity:1;fill-rule:nonzero;stroke:none"
               d="M 151,49 H 271 V 89 H 151 Z" />
            <path
               inkscape:connector-curvature="0"
               id="path877"
               style="fill:none;stroke:#000000;stroke-width:1;stroke-linecap:butt;stroke-linejoin:miter;stroke-miterlimit:10;stroke-dasharray:none;stroke-opacity:1"
               d="M 151,49 H 271 V 89 H 151 Z" />
            <path
               inkscape:connector-curvature="0"
               id="path879"
               style="fill:#ffffff;fill-opacity:1;fill-rule:nonzero;stroke:none"
               d="M 141,59 H 261 V 99 H 141 Z" />
            <path
               inkscape:connector-curvature="0"
               id="path881"
               style="fill:none;stroke:#000000;stroke-width:1;stroke-linecap:butt;stroke-linejoin:miter;stroke-miterlimit:10;stroke-dasharray:none;stroke-opacity:1"
               d="M 141,59 H 261 V 99 H 141 Z" />
          </g>
          <g
             transform="matrix(2.9914529,0,0,2.9914529,523.50427,215.38461)"
             id="g883">
            <text
               id="text887"
               style="font-variant:normal;font-weight:normal;font-size:14px;font-family:Helvetica;-inkscape-font-specification:Helvetica;writing-mode:lr-tb;fill:#000000;fill-opacity:1;fill-rule:nonzero;stroke:none"
               transform="translate(0.921875,13)">
              <tspan
                 id="tspan885"
                 sodipodi:role="line"
                 y="0"
                 x="0 7.7861328 15.572266 22.572266 32.682617 40.46875 45.130859">answers</tspan>
            </text>
          </g>
          <g
             transform="matrix(2.9914529,0,0,2.9914529,1.4957265,1.4957265)"
             id="g889">
            <path
               inkscape:connector-curvature="0"
               id="path891"
               style="fill:#ffffff;fill-opacity:1;fill-rule:nonzero;stroke:none"
               d="m 161,239 h 120 v 40 H 161 Z" />
            <path
               inkscape:connector-curvature="0"
               id="path893"
               style="fill:none;stroke:#000000;stroke-width:1;stroke-linecap:butt;stroke-linejoin:miter;stroke-miterlimit:10;stroke-dasharray:none;stroke-opacity:1"
               d="m 161,239 h 120 v 40 H 161 Z" />
            <path
               inkscape:connector-curvature="0"
               id="path895"
               style="fill:#ffffff;fill-opacity:1;fill-rule:nonzero;stroke:none"
               d="m 151,249 h 120 v 40 H 151 Z" />
            <path
               inkscape:connector-curvature="0"
               id="path897"
               style="fill:none;stroke:#000000;stroke-width:1;stroke-linecap:butt;stroke-linejoin:miter;stroke-miterlimit:10;stroke-dasharray:none;stroke-opacity:1"
               d="m 151,249 h 120 v 40 H 151 Z" />
            <path
               inkscape:connector-curvature="0"
               id="path899"
               style="fill:#ffffff;fill-opacity:1;fill-rule:nonzero;stroke:none"
               d="m 141,259 h 120 v 40 H 141 Z" />
            <path
               inkscape:connector-curvature="0"
               id="path901"
               style="fill:none;stroke:#000000;stroke-width:1;stroke-linecap:butt;stroke-linejoin:miter;stroke-miterlimit:10;stroke-dasharray:none;stroke-opacity:1"
               d="m 141,259 h 120 v 40 H 141 Z" />
          </g>
          <g
             transform="matrix(2.9914529,0,0,2.9914529,559.40167,813.67517)"
             id="g903">
            <text
               id="text907"
               style="font-variant:normal;font-weight:normal;font-size:14px;font-family:Helvetica;-inkscape-font-specification:Helvetica;writing-mode:lr-tb;fill:#000000;fill-opacity:1;fill-rule:nonzero;stroke:none"
               transform="translate(0.984375,13)">
              <tspan
                 id="tspan905"
                 sodipodi:role="line"
                 y="0"
                 x="0 7.7861328 17.124023">FAQ</tspan>
            </text>
          </g>
          <g
             transform="matrix(2.9914529,0,0,2.9914529,1.4957265,1.4957265)"
             id="g909">
            <path
               inkscape:connector-curvature="0"
               id="path911"
               style="fill:none;stroke:#000000;stroke-width:1;stroke-linecap:butt;stroke-linejoin:miter;stroke-miterlimit:10;stroke-dasharray:none;stroke-opacity:1"
               d="m 201,109 34.91,26.17999" />
            <path
               inkscape:connector-curvature="0"
               id="path913"
               style="fill:#000000;fill-opacity:1;fill-rule:nonzero;stroke:none"
               d="m 240.11,138.33 -7.7,-1.40001 3.5,-1.75 0.7,-3.84999 z" />
            <path
               inkscape:connector-curvature="0"
               id="path915"
               style="fill:none;stroke:#000000;stroke-width:1;stroke-linecap:butt;stroke-linejoin:miter;stroke-miterlimit:10;stroke-dasharray:none;stroke-opacity:1"
               d="m 240.11,138.33 -7.7,-1.40001 3.5,-1.75 0.7,-3.84999 z" />
            <path
               inkscape:connector-curvature="0"
               id="path917"
               style="fill:none;stroke:#000000;stroke-width:1;stroke-linecap:butt;stroke-linejoin:miter;stroke-miterlimit:10;stroke-dasharray:none;stroke-opacity:1"
               d="M 541,69 V 82.629997" />
            <path
               inkscape:connector-curvature="0"
               id="path919"
               style="fill:#000000;fill-opacity:1;fill-rule:nonzero;stroke:none"
               d="m 541,87.879997 -3.5,-7 3.5,1.75 3.5,-1.75 z" />
            <path
               inkscape:connector-curvature="0"
               id="path921"
               style="fill:none;stroke:#000000;stroke-width:1;stroke-linecap:butt;stroke-linejoin:miter;stroke-miterlimit:10;stroke-dasharray:none;stroke-opacity:1"
               d="m 541,87.879997 -3.5,-7 3.5,1.75 3.5,-1.75 z" />
            <path
               inkscape:connector-curvature="0"
               id="path923"
               style="fill:none;stroke:#000000;stroke-width:1;stroke-linecap:butt;stroke-linejoin:miter;stroke-miterlimit:10;stroke-dasharray:none;stroke-opacity:1"
               d="m 541,161 v 13.63" />
            <path
               inkscape:connector-curvature="0"
               id="path925"
               style="fill:#000000;fill-opacity:1;fill-rule:nonzero;stroke:none"
               d="m 541,179.88 -3.5,-7 3.5,1.75 3.5,-1.75 z" />
            <path
               inkscape:connector-curvature="0"
               id="path927"
               style="fill:none;stroke:#000000;stroke-width:1;stroke-linecap:butt;stroke-linejoin:miter;stroke-miterlimit:10;stroke-dasharray:none;stroke-opacity:1"
               d="m 541,179.88 -3.5,-7 3.5,1.75 3.5,-1.75 z" />
            <path
               inkscape:connector-curvature="0"
               id="path929"
               style="fill:none;stroke:#000000;stroke-width:1;stroke-linecap:butt;stroke-linejoin:miter;stroke-miterlimit:10;stroke-dasharray:none;stroke-opacity:1"
               d="m 401,109 -34.91,26.17999" />
            <path
               inkscape:connector-curvature="0"
               id="path931"
               style="fill:#000000;fill-opacity:1;fill-rule:nonzero;stroke:none"
               d="m 361.89001,138.33 3.5,-7 0.69999,3.84999 3.5,1.75 z" />
            <path
               inkscape:connector-curvature="0"
               id="path933"
               style="fill:none;stroke:#000000;stroke-width:1;stroke-linecap:butt;stroke-linejoin:miter;stroke-miterlimit:10;stroke-dasharray:none;stroke-opacity:1"
               d="m 361.89001,138.33 3.5,-7 0.69999,3.84999 3.5,1.75 z" />
            <path
               inkscape:connector-curvature="0"
               id="path935"
               style="fill:none;stroke:#000000;stroke-width:1;stroke-linecap:butt;stroke-linejoin:miter;stroke-miterlimit:10;stroke-dasharray:none;stroke-opacity:1"
               d="m 231,199 -16.47,24.7" />
            <path
               inkscape:connector-curvature="0"
               id="path937"
               style="fill:#000000;fill-opacity:1;fill-rule:nonzero;stroke:none"
               d="m 211.62,228.07001 0.97,-7.77001 1.94,3.4 3.89,0.49 z" />
            <path
               inkscape:connector-curvature="0"
               id="path939"
               style="fill:none;stroke:#000000;stroke-width:1;stroke-linecap:butt;stroke-linejoin:miter;stroke-miterlimit:10;stroke-dasharray:none;stroke-opacity:1"
               d="m 211.62,228.07001 0.97,-7.77001 1.94,3.4 3.89,0.49 z" />
            <path
               inkscape:connector-curvature="0"
               id="path941"
               style="fill:#ffe6cc;fill-opacity:1;fill-rule:nonzero;stroke:none"
               d="m 461,339 h 120 v 40 H 461 Z" />
            <path
               inkscape:connector-curvature="0"
               id="path943"
               style="fill:none;stroke:#d79b00;stroke-width:1;stroke-linecap:butt;stroke-linejoin:miter;stroke-miterlimit:10;stroke-dasharray:none;stroke-opacity:1"
               d="m 461,339 h 120 v 40 H 461 Z" />
          </g>
          <g
             transform="matrix(2.9914529,0,0,2.9914529,1385.0427,1052.9915)"
             id="g945">
            <text
               id="text949"
               style="font-variant:normal;font-weight:normal;font-size:14px;font-family:Helvetica;-inkscape-font-specification:Helvetica;writing-mode:lr-tb;fill:#000000;fill-opacity:1;fill-rule:nonzero;stroke:none"
               transform="translate(0.40625,13)">
              <tspan
                 id="tspan947"
                 sodipodi:role="line"
                 y="0"
                 x="0 7.7861328 15.572266 19.461914 22.572266 26.461914 29.572266 37.358398 44.358398 52.144531 59.144531 66.144531 73.930664 81.716797 89.50293 96.50293 108.16504">entities_synonyms</tspan>
            </text>
          </g>
          <g
             transform="matrix(2.9914529,0,0,2.9914529,1.4957265,1.4957265)"
             id="g951">
            <path
               inkscape:connector-curvature="0"
               id="path953"
               style="fill:#ffe6cc;fill-opacity:1;fill-rule:nonzero;stroke:none"
               d="m 341,259 h 120 v 40 H 341 Z" />
            <path
               inkscape:connector-curvature="0"
               id="path955"
               style="fill:none;stroke:#d79b00;stroke-width:1;stroke-linecap:butt;stroke-linejoin:miter;stroke-miterlimit:10;stroke-dasharray:none;stroke-opacity:1"
               d="m 341,259 h 120 v 40 H 341 Z" />
          </g>
          <g
             transform="matrix(2.9914529,0,0,2.9914529,1073.9316,789.74359)"
             id="g957">
            <text
               id="text961"
               style="font-variant:normal;font-weight:normal;font-size:14px;font-family:Helvetica;-inkscape-font-specification:Helvetica;writing-mode:lr-tb;fill:#000000;fill-opacity:1;fill-rule:nonzero;stroke:none"
               transform="translate(0.96875,13)">
              <tspan
                 id="tspan959"
                 sodipodi:role="line"
                 y="0"
                 x="0 7.7861328 15.572266 19.461914 22.572266 26.461914 29.572266 37.358398 44.358398 52.144531 59.144531 62.254883 65.365234 68.475586 76.261719">entities_ﬁlling</tspan>
            </text>
            <text
               id="text965"
               style="font-variant:normal;font-weight:normal;font-size:14px;font-family:Helvetica;-inkscape-font-specification:Helvetica;writing-mode:lr-tb;fill:#000000;fill-opacity:1;fill-rule:nonzero;stroke:none"
               transform="translate(13.046875,29)">
              <tspan
                 id="tspan963"
                 sodipodi:role="line"
                 y="0"
                 x="0 7.7861328 15.572266 23.358398 30.358398 40.46875 48.254883 52.916992">_answers</tspan>
            </text>
          </g>
          <g
             transform="matrix(2.9914529,0,0,2.9914529,1.4957265,1.4957265)"
             id="g967">
            <path
               inkscape:connector-curvature="0"
               id="path969"
               style="fill:none;stroke:#000000;stroke-width:1;stroke-linecap:butt;stroke-linejoin:miter;stroke-miterlimit:10;stroke-dasharray:none;stroke-opacity:1"
               d="m 361,199 36.01999,45.03" />
            <path
               inkscape:connector-curvature="0"
               id="path971"
               style="fill:#000000;fill-opacity:1;fill-rule:nonzero;stroke:none"
               d="m 400.29999,248.13 -7.09998,-3.27999 3.81998,-0.82001 1.64001,-3.56 z" />
            <path
               inkscape:connector-curvature="0"
               id="path973"
               style="fill:none;stroke:#000000;stroke-width:1;stroke-linecap:butt;stroke-linejoin:miter;stroke-miterlimit:10;stroke-dasharray:none;stroke-opacity:1"
               d="m 400.29999,248.13 -7.09998,-3.27999 3.81998,-0.82001 1.64001,-3.56 z" />
            <path
               inkscape:connector-curvature="0"
               id="path975"
               style="fill:#ffffff;fill-opacity:1;fill-rule:nonzero;stroke:none"
               d="m 381,389 c 3e-5,0.98257 -0.12839,1.96274 -0.38519,2.94052 -0.25684,0.97781 -0.64084,1.94852 -1.15201,2.91217 -0.51114,0.96366 -1.14703,1.91559 -1.90762,2.85581 -0.76056,0.94024 -1.64219,1.86422 -2.64487,2.77194 -1.00263,0.90777 -2.12149,1.79492 -3.3566,2.66141 -1.23511,0.86654 -2.5805,1.70825 -4.03616,2.52517 -1.45566,0.81699 -3.01456,1.60523 -4.6767,2.36475 -1.66217,0.75952 -3.41962,1.48666 -5.27231,2.1814 -1.85269,0.69476 -3.79172,1.35382 -5.81708,1.97714 -2.02536,0.62329 -4.12728,1.20785 -6.30584,1.75372 -2.17856,0.54587 -4.42319,1.05042 -6.73389,1.51358 -2.31073,0.46317 -4.67642,0.88275 -7.09708,1.25873 -2.42065,0.37601 -4.88461,0.70663 -7.39187,0.99182 -2.5073,0.28522 -5.04581,0.52365 -7.61557,0.71533 -2.56973,0.19171 -5.15836,0.33573 -7.76584,0.43204 C 306.23392,418.95184 303.62012,419 301,419 c -2.62009,0 -5.23389,-0.0482 -7.84137,-0.14447 -2.60751,-0.0963 -5.19614,-0.24033 -7.7659,-0.43204 -2.56973,-0.19168 -5.10825,-0.43011 -7.61554,-0.71533 -2.50729,-0.28522 -4.97125,-0.61584 -7.39194,-0.99185 -2.42065,-0.37598 -4.78634,-0.79556 -7.09704,-1.25873 -2.31073,-0.46316 -4.55536,-0.96768 -6.73389,-1.51358 -2.17851,-0.54584 -4.28044,-1.1304 -6.30578,-1.75372 -2.02536,-0.62332 -3.96439,-1.28235 -5.8171,-1.97711 -1.85267,-0.69474 -3.61011,-1.42188 -5.27228,-2.18137 -1.66218,-0.75952 -3.2211,-1.54776 -4.67677,-2.36475 -1.45564,-0.81692 -2.80101,-1.65863 -4.03612,-2.52517 -1.23509,-0.86652 -2.35398,-1.75367 -3.35666,-2.66144 -1.00267,-0.90772 -1.88427,-1.8317 -2.64485,-2.77194 -0.76057,-0.94022 -1.39645,-1.89219 -1.9076,-2.85584 -0.51116,-0.96362 -0.89513,-1.93433 -1.15194,-2.91214 C 221.1284,390.96274 221,389.98257 221,389 c 0,-0.98254 0.1284,-1.96274 0.38522,-2.94055 0.25681,-0.97778 0.64078,-1.94852 1.15194,-2.9122 0.51115,-0.96363 1.14701,-1.91556 1.90759,-2.85584 0.76057,-0.94021 1.64219,-1.86422 2.64486,-2.772 1.00268,-0.90775 2.12157,-1.79486 3.35668,-2.66135 1.23511,-0.86651 2.58047,-1.70825 4.03612,-2.52524 1.45565,-0.81692 3.01457,-1.60513 4.67675,-2.36462 1.66217,-0.75949 3.41961,-1.48663 5.27228,-2.18143 1.85271,-0.69473 3.79174,-1.35376 5.81708,-1.97708 2.02536,-0.62332 4.12729,-1.20791 6.3058,-1.75381 2.17853,-0.54584 4.42316,-1.05036 6.73389,-1.51352 2.3107,-0.46317 4.67639,-0.88275 7.09704,-1.25876 2.42069,-0.37598 4.88465,-0.70657 7.39194,-0.99182 2.50729,-0.28519 5.04581,-0.52365 7.61554,-0.71536 2.56976,-0.19168 5.15839,-0.33567 7.7659,-0.43195 C 295.76611,359.04816 298.37991,359 301,359 c 2.62012,0 5.23392,0.0482 7.84137,0.14447 2.60748,0.0963 5.19611,0.24027 7.76584,0.43195 2.56976,0.19171 5.10827,0.43017 7.61557,0.71536 2.50726,0.28525 4.97122,0.61584 7.39187,0.99182 2.42066,0.37601 4.78635,0.79562 7.09708,1.25879 2.3107,0.46316 4.55533,0.96765 6.73386,1.51349 2.17856,0.5459 4.28051,1.13049 6.30587,1.75381 2.02536,0.62332 3.96439,1.28235 5.81708,1.97708 1.85269,0.6948 3.61014,1.42191 5.27231,2.1814 1.66214,0.75952 3.22104,1.54773 4.67667,2.36465 1.45569,0.81699 2.80108,1.65873 4.03616,2.52527 1.23514,0.86652 2.354,1.75363 3.35663,2.66135 1.00268,0.90778 1.88431,1.83176 2.64487,2.77197 0.76059,0.94028 1.39648,1.89221 1.90762,2.85584 0.51117,0.96368 0.89517,1.93442 1.15201,2.91223 0.2568,0.97781 0.38522,1.95798 0.38519,2.94052 z" />
            <path
               inkscape:connector-curvature="0"
               id="path977"
               style="fill:none;stroke:#000000;stroke-width:1;stroke-linecap:butt;stroke-linejoin:miter;stroke-miterlimit:10;stroke-dasharray:none;stroke-opacity:1"
               d="m 381,389 c 3e-5,0.98257 -0.12839,1.96274 -0.38519,2.94052 -0.25684,0.97781 -0.64084,1.94852 -1.15201,2.91217 -0.51114,0.96366 -1.14703,1.91559 -1.90762,2.85581 -0.76056,0.94024 -1.64219,1.86422 -2.64487,2.77194 -1.00263,0.90777 -2.12149,1.79492 -3.3566,2.66141 -1.23511,0.86654 -2.5805,1.70825 -4.03616,2.52517 -1.45566,0.81699 -3.01456,1.60523 -4.6767,2.36475 -1.66217,0.75952 -3.41962,1.48666 -5.27231,2.1814 -1.85269,0.69476 -3.79172,1.35382 -5.81708,1.97714 -2.02536,0.62329 -4.12728,1.20785 -6.30584,1.75372 -2.17856,0.54587 -4.42319,1.05042 -6.73389,1.51358 -2.31073,0.46317 -4.67642,0.88275 -7.09708,1.25873 -2.42065,0.37601 -4.88461,0.70663 -7.39187,0.99182 -2.5073,0.28522 -5.04581,0.52365 -7.61557,0.71533 -2.56973,0.19171 -5.15836,0.33573 -7.76584,0.43204 C 306.23392,418.95184 303.62012,419 301,419 c -2.62009,0 -5.23389,-0.0482 -7.84137,-0.14447 -2.60751,-0.0963 -5.19614,-0.24033 -7.7659,-0.43204 -2.56973,-0.19168 -5.10825,-0.43011 -7.61554,-0.71533 -2.50729,-0.28522 -4.97125,-0.61584 -7.39194,-0.99185 -2.42065,-0.37598 -4.78634,-0.79556 -7.09704,-1.25873 -2.31073,-0.46316 -4.55536,-0.96768 -6.73389,-1.51358 -2.17851,-0.54584 -4.28044,-1.1304 -6.30578,-1.75372 -2.02536,-0.62332 -3.96439,-1.28235 -5.8171,-1.97711 -1.85267,-0.69474 -3.61011,-1.42188 -5.27228,-2.18137 -1.66218,-0.75952 -3.2211,-1.54776 -4.67677,-2.36475 -1.45564,-0.81692 -2.80101,-1.65863 -4.03612,-2.52517 -1.23509,-0.86652 -2.35398,-1.75367 -3.35666,-2.66144 -1.00267,-0.90772 -1.88427,-1.8317 -2.64485,-2.77194 -0.76057,-0.94022 -1.39645,-1.89219 -1.9076,-2.85584 -0.51116,-0.96362 -0.89513,-1.93433 -1.15194,-2.91214 C 221.1284,390.96274 221,389.98257 221,389 c 0,-0.98254 0.1284,-1.96274 0.38522,-2.94055 0.25681,-0.97778 0.64078,-1.94852 1.15194,-2.9122 0.51115,-0.96363 1.14701,-1.91556 1.90759,-2.85584 0.76057,-0.94021 1.64219,-1.86422 2.64486,-2.772 1.00268,-0.90775 2.12157,-1.79486 3.35668,-2.66135 1.23511,-0.86651 2.58047,-1.70825 4.03612,-2.52524 1.45565,-0.81692 3.01457,-1.60513 4.67675,-2.36462 1.66217,-0.75949 3.41961,-1.48663 5.27228,-2.18143 1.85271,-0.69473 3.79174,-1.35376 5.81708,-1.97708 2.02536,-0.62332 4.12729,-1.20791 6.3058,-1.75381 2.17853,-0.54584 4.42316,-1.05036 6.73389,-1.51352 2.3107,-0.46317 4.67639,-0.88275 7.09704,-1.25876 2.42069,-0.37598 4.88465,-0.70657 7.39194,-0.99182 2.50729,-0.28519 5.04581,-0.52365 7.61554,-0.71536 2.56976,-0.19168 5.15839,-0.33567 7.7659,-0.43195 C 295.76611,359.04816 298.37991,359 301,359 c 2.62012,0 5.23392,0.0482 7.84137,0.14447 2.60748,0.0963 5.19611,0.24027 7.76584,0.43195 2.56976,0.19171 5.10827,0.43017 7.61557,0.71536 2.50726,0.28525 4.97122,0.61584 7.39187,0.99182 2.42066,0.37601 4.78635,0.79562 7.09708,1.25879 2.3107,0.46316 4.55533,0.96765 6.73386,1.51349 2.17856,0.5459 4.28051,1.13049 6.30587,1.75381 2.02536,0.62332 3.96439,1.28235 5.81708,1.97708 1.85269,0.6948 3.61014,1.42191 5.27231,2.1814 1.66214,0.75952 3.22104,1.54773 4.67667,2.36465 1.45569,0.81699 2.80108,1.65873 4.03616,2.52527 1.23514,0.86652 2.354,1.75363 3.35663,2.66135 1.00268,0.90778 1.88431,1.83176 2.64487,2.77197 0.76059,0.94028 1.39648,1.89221 1.90762,2.85584 0.51117,0.96368 0.89517,1.93442 1.15201,2.91223 0.2568,0.97781 0.38522,1.95798 0.38519,2.94052 z" />
          </g>
          <g
             transform="matrix(2.9914529,0,0,2.9914529,729.91449,1142.735)"
             id="g979">
            <text
               id="text983"
               style="font-variant:normal;font-weight:normal;font-size:14px;font-family:Helvetica;-inkscape-font-specification:Helvetica;writing-mode:lr-tb;fill:#000000;fill-opacity:1;fill-rule:nonzero;stroke:none"
               transform="translate(0.1875,13)">
              <tspan
                 id="tspan981"
                 sodipodi:role="line"
                 y="0"
                 x="0 10.110352 17.896484 22.558594 29.558594 36.558594 44.344727 52.130859 59.130859 66.916992 74.703125 86.365234 94.151367 101.15137 108.9375">workspace_maker</tspan>
            </text>
          </g>
          <g
             transform="matrix(2.9914529,0,0,2.9914529,1.4957265,1.4957265)"
             id="g985">
            <path
               inkscape:connector-curvature="0"
               id="path987"
               style="fill:none;stroke:#000000;stroke-width:1;stroke-linecap:butt;stroke-linejoin:miter;stroke-miterlimit:10;stroke-dasharray:none;stroke-opacity:1"
               d="m 451,359 -63.88,18.25" />
            <path
               inkscape:connector-curvature="0"
               id="path989"
               style="fill:#000000;fill-opacity:1;fill-rule:nonzero;stroke:none"
               d="m 382.07001,378.69 5.76999,-5.29001 -0.72,3.85001 2.64999,2.89001 z" />
            <path
               inkscape:connector-curvature="0"
               id="path991"
               style="fill:none;stroke:#000000;stroke-width:1;stroke-linecap:butt;stroke-linejoin:miter;stroke-miterlimit:10;stroke-dasharray:none;stroke-opacity:1"
               d="m 382.07001,378.69 5.76999,-5.29001 -0.72,3.85001 2.64999,2.89001 z" />
            <path
               inkscape:connector-curvature="0"
               id="path993"
               style="fill:none;stroke:#000000;stroke-width:1;stroke-linecap:butt;stroke-linejoin:miter;stroke-miterlimit:10;stroke-dasharray:none;stroke-opacity:1"
               d="m 401,309 -36.01999,45.03" />
            <path
               inkscape:connector-curvature="0"
               id="path995"
               style="fill:#000000;fill-opacity:1;fill-rule:nonzero;stroke:none"
               d="m 361.70001,358.13 1.63999,-7.66 1.64001,3.56 3.81998,0.82001 z" />
            <path
               inkscape:connector-curvature="0"
               id="path997"
               style="fill:none;stroke:#000000;stroke-width:1;stroke-linecap:butt;stroke-linejoin:miter;stroke-miterlimit:10;stroke-dasharray:none;stroke-opacity:1"
               d="m 361.70001,358.13 1.63999,-7.66 1.64001,3.56 3.81998,0.82001 z" />
            <path
               inkscape:connector-curvature="0"
               id="path999"
               style="fill:none;stroke:#000000;stroke-width:1;stroke-linecap:butt;stroke-linejoin:miter;stroke-miterlimit:10;stroke-dasharray:none;stroke-opacity:1"
               d="m 201,309 36.02,45.03" />
            <path
               inkscape:connector-curvature="0"
               id="path1001"
               style="fill:#000000;fill-opacity:1;fill-rule:nonzero;stroke:none"
               d="m 240.3,358.13 -7.1,-3.27999 3.82,-0.82001 1.64,-3.56 z" />
            <path
               inkscape:connector-curvature="0"
               id="path1003"
               style="fill:none;stroke:#000000;stroke-width:1;stroke-linecap:butt;stroke-linejoin:miter;stroke-miterlimit:10;stroke-dasharray:none;stroke-opacity:1"
               d="m 240.3,358.13 -7.1,-3.27999 3.82,-0.82001 1.64,-3.56 z" />
            <path
               inkscape:connector-curvature="0"
               id="path1005"
               style="fill:#ffe6cc;fill-opacity:1;fill-rule:nonzero;stroke:none"
               d="m 461,399 h 120 v 40 H 461 Z" />
            <path
               inkscape:connector-curvature="0"
               id="path1007"
               style="fill:none;stroke:#d79b00;stroke-width:1;stroke-linecap:butt;stroke-linejoin:miter;stroke-miterlimit:10;stroke-dasharray:none;stroke-opacity:1"
               d="m 461,399 h 120 v 40 H 461 Z" />
          </g>
          <g
             transform="matrix(2.9914529,0,0,2.9914529,1385.0427,1232.4786)"
             id="g1009">
            <text
               id="text1013"
               style="font-variant:normal;font-weight:normal;font-size:14px;font-family:Helvetica;-inkscape-font-specification:Helvetica;writing-mode:lr-tb;fill:#000000;fill-opacity:1;fill-rule:nonzero;stroke:none"
               transform="translate(0.734375,13)">
              <tspan
                 id="tspan1011"
                 sodipodi:role="line"
                 y="0"
                 x="0 10.110352 17.896484 25.682617 33.46875 41.254883 49.041016 56.041016 63.827148 67.716797 75.50293 87.165039 94.951172 98.061523 105.84766 109.7373">webhook_template</tspan>
            </text>
          </g>
          <g
             transform="matrix(2.9914529,0,0,2.9914529,1.4957265,1.4957265)"
             id="g1015">
            <path
               inkscape:connector-curvature="0"
               id="path1017"
               style="fill:none;stroke:#000000;stroke-width:1;stroke-linecap:butt;stroke-linejoin:miter;stroke-miterlimit:10;stroke-dasharray:none;stroke-opacity:1"
               d="M 451,419 387.12,400.75" />
            <path
               inkscape:connector-curvature="0"
               id="path1019"
               style="fill:#000000;fill-opacity:1;fill-rule:nonzero;stroke:none"
               d="m 382.07001,399.31 7.69998,-1.45001 -2.64999,2.89001 0.72,3.85001 z" />
            <path
               inkscape:connector-curvature="0"
               id="path1021"
               style="fill:none;stroke:#000000;stroke-width:1;stroke-linecap:butt;stroke-linejoin:miter;stroke-miterlimit:10;stroke-dasharray:none;stroke-opacity:1"
               d="m 382.07001,399.31 7.69998,-1.45001 -2.64999,2.89001 0.72,3.85001 z" />
            <path
               inkscape:connector-curvature="0"
               id="path1023"
               style="fill:#ffffff;fill-opacity:1;fill-rule:nonzero;stroke:none"
               d="m 161,389 c 0,0.98257 -0.1284,1.96274 -0.38521,2.94052 -0.25682,0.97781 -0.64081,1.94852 -1.15199,2.91217 -0.51114,0.96366 -1.147,1.91559 -1.90758,2.85581 -0.76057,0.94024 -1.64221,1.86422 -2.64488,2.77194 -1.00267,0.90777 -2.12155,1.79492 -3.35666,2.66141 -1.23511,0.86654 -2.58049,1.70825 -4.03613,2.52517 -1.45565,0.81699 -3.01456,1.60523 -4.67673,2.36475 -1.66217,0.75952 -3.4196,1.48666 -5.27229,2.1814 -1.85268,0.69476 -3.79171,1.35382 -5.81708,1.97714 -2.02536,0.62329 -4.12731,1.20785 -6.30585,1.75372 -2.17853,0.54587 -4.42315,1.05042 -6.73388,1.51358 -2.31072,0.46317 -4.6764,0.88275 -7.09706,1.25873 -2.42064,0.37601 -4.88461,0.70663 -7.39189,0.99182 -2.50728,0.28522 -5.045799,0.52365 -7.615554,0.71533 -2.569748,0.19171 -5.158363,0.33573 -7.765839,0.43204 C 86.233887,418.95184 83.620094,419 81,419 c -2.620094,0 -5.233887,-0.0482 -7.84137,-0.14447 -2.60749,-0.0963 -5.196106,-0.24033 -7.765861,-0.43204 -2.569752,-0.19168 -5.108265,-0.43011 -7.615547,-0.71533 -2.507279,-0.28522 -4.971245,-0.61584 -7.391903,-0.99185 -2.420651,-0.37598 -4.786339,-0.79556 -7.097065,-1.25873 -2.310719,-0.46316 -4.555348,-0.96768 -6.733879,-1.51358 -2.178532,-0.54584 -4.280476,-1.1304 -6.305838,-1.75372 -2.025362,-0.62332 -3.96439,-1.28235 -5.817081,-1.97711 -1.85269,-0.69474 -3.610121,-1.42188 -5.272293,-2.18137 -1.662173,-0.75952 -3.221084,-1.54776 -4.676733,-2.36475 -1.455649,-0.81692 -2.801026,-1.65863 -4.036132,-2.52517 -1.2351068,-0.86652 -2.3539938,-1.75367 -3.3566617,-2.66144 -1.0026679,-0.90772 -1.8842892,-1.8317 -2.6448641,-2.77194 -0.7605743,-0.94022 -1.396439,-1.89219 -1.9075951,-2.85584 C 2.0260215,393.88904 1.6420363,392.91833 1.3852218,391.94052 1.1284072,390.96274 1,389.98257 1,389 c 0,-0.98254 0.1284072,-1.96274 0.3852218,-2.94055 0.2568145,-0.97778 0.6407997,-1.94852 1.1519553,-2.9122 0.5111561,-0.96363 1.147021,-1.91556 1.9075956,-2.85584 0.7605744,-0.94021 1.6421957,-1.86422 2.6448636,-2.772 1.0026679,-0.90775 2.1215549,-1.79486 3.3566617,-2.66135 1.235106,-0.86651 2.580483,-1.70825 4.036132,-2.52524 1.455649,-0.81692 3.01456,-1.60513 4.676733,-2.36462 1.662172,-0.75949 3.419603,-1.48663 5.272293,-2.18143 1.852691,-0.69473 3.791719,-1.35376 5.817081,-1.97708 2.025362,-0.62332 4.127306,-1.20791 6.305838,-1.75381 2.178531,-0.54584 4.42316,-1.05036 6.733883,-1.51352 2.310722,-0.46317 4.67641,-0.88275 7.097061,-1.25876 2.420658,-0.37598 4.884624,-0.70657 7.391906,-0.99182 2.507279,-0.28519 5.045792,-0.52365 7.615544,-0.71536 2.569755,-0.19168 5.158371,-0.33567 7.765861,-0.43195 C 75.766113,359.04816 78.379906,359 81,359 c 2.620094,0 5.233887,0.0482 7.84137,0.14447 2.607483,0.0963 5.196098,0.24027 7.765846,0.43195 2.569755,0.19171 5.108274,0.43017 7.615554,0.71536 2.50728,0.28525 4.97125,0.61584 7.39189,0.99182 2.42066,0.37601 4.78634,0.79562 7.09706,1.25879 2.31073,0.46316 4.55536,0.96765 6.73388,1.51349 2.17854,0.5459 4.28049,1.13049 6.30585,1.75381 2.02537,0.62332 3.9644,1.28235 5.81708,1.97708 1.85269,0.6948 3.61012,1.42191 5.27231,2.1814 1.66215,0.75952 3.22106,1.54773 4.67671,2.36465 1.45564,0.81699 2.80102,1.65873 4.03613,2.52527 1.23511,0.86652 2.35399,1.75363 3.35666,2.66135 1.00267,0.90778 1.88431,1.83176 2.64488,2.77197 0.76058,0.94028 1.39644,1.89221 1.90758,2.85584 0.51118,0.96368 0.89517,1.93442 1.15199,2.91223 C 160.8716,387.03729 161,388.01746 161,389 Z" />
            <path
               inkscape:connector-curvature="0"
               id="path1025"
               style="fill:none;stroke:#000000;stroke-width:1;stroke-linecap:butt;stroke-linejoin:miter;stroke-miterlimit:10;stroke-dasharray:none;stroke-opacity:1"
               d="m 161,389 c 0,0.98257 -0.1284,1.96274 -0.38521,2.94052 -0.25682,0.97781 -0.64081,1.94852 -1.15199,2.91217 -0.51114,0.96366 -1.147,1.91559 -1.90758,2.85581 -0.76057,0.94024 -1.64221,1.86422 -2.64488,2.77194 -1.00267,0.90777 -2.12155,1.79492 -3.35666,2.66141 -1.23511,0.86654 -2.58049,1.70825 -4.03613,2.52517 -1.45565,0.81699 -3.01456,1.60523 -4.67673,2.36475 -1.66217,0.75952 -3.4196,1.48666 -5.27229,2.1814 -1.85268,0.69476 -3.79171,1.35382 -5.81708,1.97714 -2.02536,0.62329 -4.12731,1.20785 -6.30585,1.75372 -2.17853,0.54587 -4.42315,1.05042 -6.73388,1.51358 -2.31072,0.46317 -4.6764,0.88275 -7.09706,1.25873 -2.42064,0.37601 -4.88461,0.70663 -7.39189,0.99182 -2.50728,0.28522 -5.045799,0.52365 -7.615554,0.71533 -2.569748,0.19171 -5.158363,0.33573 -7.765839,0.43204 C 86.233887,418.95184 83.620094,419 81,419 c -2.620094,0 -5.233887,-0.0482 -7.84137,-0.14447 -2.60749,-0.0963 -5.196106,-0.24033 -7.765861,-0.43204 -2.569752,-0.19168 -5.108265,-0.43011 -7.615547,-0.71533 -2.507279,-0.28522 -4.971245,-0.61584 -7.391903,-0.99185 -2.420651,-0.37598 -4.786339,-0.79556 -7.097065,-1.25873 -2.310719,-0.46316 -4.555348,-0.96768 -6.733879,-1.51358 -2.178532,-0.54584 -4.280476,-1.1304 -6.305838,-1.75372 -2.025362,-0.62332 -3.96439,-1.28235 -5.817081,-1.97711 -1.85269,-0.69474 -3.610121,-1.42188 -5.272293,-2.18137 -1.662173,-0.75952 -3.221084,-1.54776 -4.676733,-2.36475 -1.455649,-0.81692 -2.801026,-1.65863 -4.036132,-2.52517 -1.2351068,-0.86652 -2.3539938,-1.75367 -3.3566617,-2.66144 -1.0026679,-0.90772 -1.8842892,-1.8317 -2.6448641,-2.77194 -0.7605743,-0.94022 -1.396439,-1.89219 -1.9075951,-2.85584 C 2.0260215,393.88904 1.6420363,392.91833 1.3852218,391.94052 1.1284072,390.96274 1,389.98257 1,389 c 0,-0.98254 0.1284072,-1.96274 0.3852218,-2.94055 0.2568145,-0.97778 0.6407997,-1.94852 1.1519553,-2.9122 0.5111561,-0.96363 1.147021,-1.91556 1.9075956,-2.85584 0.7605744,-0.94021 1.6421957,-1.86422 2.6448636,-2.772 1.0026679,-0.90775 2.1215549,-1.79486 3.3566617,-2.66135 1.235106,-0.86651 2.580483,-1.70825 4.036132,-2.52524 1.455649,-0.81692 3.01456,-1.60513 4.676733,-2.36462 1.662172,-0.75949 3.419603,-1.48663 5.272293,-2.18143 1.852691,-0.69473 3.791719,-1.35376 5.817081,-1.97708 2.025362,-0.62332 4.127306,-1.20791 6.305838,-1.75381 2.178531,-0.54584 4.42316,-1.05036 6.733883,-1.51352 2.310722,-0.46317 4.67641,-0.88275 7.097061,-1.25876 2.420658,-0.37598 4.884624,-0.70657 7.391906,-0.99182 2.507279,-0.28519 5.045792,-0.52365 7.615544,-0.71536 2.569755,-0.19168 5.158371,-0.33567 7.765861,-0.43195 C 75.766113,359.04816 78.379906,359 81,359 c 2.620094,0 5.233887,0.0482 7.84137,0.14447 2.607483,0.0963 5.196098,0.24027 7.765846,0.43195 2.569755,0.19171 5.108274,0.43017 7.615554,0.71536 2.50728,0.28525 4.97125,0.61584 7.39189,0.99182 2.42066,0.37601 4.78634,0.79562 7.09706,1.25879 2.31073,0.46316 4.55536,0.96765 6.73388,1.51349 2.17854,0.5459 4.28049,1.13049 6.30585,1.75381 2.02537,0.62332 3.9644,1.28235 5.81708,1.97708 1.85269,0.6948 3.61012,1.42191 5.27231,2.1814 1.66215,0.75952 3.22106,1.54773 4.67671,2.36465 1.45564,0.81699 2.80102,1.65873 4.03613,2.52527 1.23511,0.86652 2.35399,1.75363 3.35666,2.66135 1.00267,0.90778 1.88431,1.83176 2.64488,2.77197 0.76058,0.94028 1.39644,1.89221 1.90758,2.85584 0.51118,0.96368 0.89517,1.93442 1.15199,2.91223 C 160.8716,387.03729 161,388.01746 161,389 Z" />
          </g>
          <g
             transform="matrix(2.9914529,0,0,2.9914529,128.63248,1142.735)"
             id="g1027">
            <text
               id="text1031"
               style="font-variant:normal;font-weight:normal;font-size:14px;font-family:Helvetica;-inkscape-font-specification:Helvetica;writing-mode:lr-tb;fill:#000000;fill-opacity:1;fill-rule:nonzero;stroke:none"
               transform="translate(0.859375,13)">
              <tspan
                 id="tspan1029"
                 sodipodi:role="line"
                 y="0"
                 x="0 7.7861328 11.675781 23.337891 26.448242 34.234375 38.124023 45.910156 53.696289 57.585938 65.37207 72.37207">html_to_text</tspan>
            </text>
          </g>
          <g
             transform="matrix(2.9914529,0,0,2.9914529,1.4957265,1.4957265)"
             id="g1033">
            <path
               inkscape:connector-curvature="0"
               id="path1035"
               style="fill:none;stroke:#000000;stroke-width:1;stroke-linecap:butt;stroke-linejoin:miter;stroke-miterlimit:10;stroke-dasharray:none;stroke-opacity:1"
               d="m 171,389 h 23.28999" />
            <path
               inkscape:connector-curvature="0"
               id="path1037"
               style="fill:none;stroke:#000000;stroke-width:1;stroke-linecap:butt;stroke-linejoin:miter;stroke-miterlimit:10;stroke-dasharray:none;stroke-opacity:1"
               d="m 210.28999,389 -8,8 -8,-8 8,-8 z" />
            <path
               inkscape:connector-curvature="0"
               id="path1039"
               style="fill:#ffffff;fill-opacity:1;fill-rule:nonzero;stroke:none"
               d="m 141,479 h 120 v 40 H 141 Z" />
            <path
               inkscape:connector-curvature="0"
               id="path1041"
               style="fill:none;stroke:#000000;stroke-width:1;stroke-linecap:butt;stroke-linejoin:miter;stroke-miterlimit:10;stroke-dasharray:none;stroke-opacity:1"
               d="m 141,479 h 120 v 40 H 141 Z" />
          </g>
          <g
             transform="matrix(2.9914529,0,0,2.9914529,502.56409,1471.7948)"
             id="g1043">
            <text
               id="text1047"
               style="font-variant:normal;font-weight:normal;font-size:14px;font-family:Helvetica;-inkscape-font-specification:Helvetica;writing-mode:lr-tb;fill:#000000;fill-opacity:1;fill-rule:nonzero;stroke:none"
               transform="translate(0.53125,13)">
              <tspan
                 id="tspan1045"
                 sodipodi:role="line"
                 y="0"
                 x="0 10.110352 17.896484 22.558594 29.558594 36.558594 44.344727 52.130859 59.130859">workspace</tspan>
            </text>
          </g>
          <g
             transform="matrix(2.9914529,0,0,2.9914529,1.4957265,1.4957265)"
             id="g1049">
            <path
               inkscape:connector-curvature="0"
               id="path1051"
               style="fill:#ffe6cc;fill-opacity:1;fill-rule:nonzero;stroke:none"
               d="m 341,479 h 120 v 40 H 341 Z" />
            <path
               inkscape:connector-curvature="0"
               id="path1053"
               style="fill:none;stroke:#d79b00;stroke-width:1;stroke-linecap:butt;stroke-linejoin:miter;stroke-miterlimit:10;stroke-dasharray:none;stroke-opacity:1"
               d="m 341,479 h 120 v 40 H 341 Z" />
          </g>
          <g
             transform="matrix(2.9914529,0,0,2.9914529,1094.8718,1471.7948)"
             id="g1055">
            <text
               id="text1059"
               style="font-variant:normal;font-weight:normal;font-size:14px;font-family:Helvetica;-inkscape-font-specification:Helvetica;writing-mode:lr-tb;fill:#000000;fill-opacity:1;fill-rule:nonzero;stroke:none"
               transform="translate(0.96875,13)">
              <tspan
                 id="tspan1057"
                 sodipodi:role="line"
                 y="0"
                 x="0 10.110352 17.896484 25.682617 33.46875 41.254883 49.041016 56.041016 59.930664 63.041016">webhook.js</tspan>
            </text>
          </g>
          <g
             transform="matrix(2.9914529,0,0,2.9914529,1.4957265,1.4957265)"
             id="g1061">
            <path
               inkscape:connector-curvature="0"
               id="path1063"
               style="fill:none;stroke:#000000;stroke-width:1;stroke-linecap:butt;stroke-linejoin:miter;stroke-miterlimit:10;stroke-dasharray:none;stroke-opacity:1"
               d="m 241,419 -36.02,45.03" />
            <path
               inkscape:connector-curvature="0"
               id="path1065"
               style="fill:#000000;fill-opacity:1;fill-rule:nonzero;stroke:none"
               d="m 201.7,468.13 1.64,-7.66 1.64,3.56 3.82,0.82001 z" />
            <path
               inkscape:connector-curvature="0"
               id="path1067"
               style="fill:none;stroke:#000000;stroke-width:1;stroke-linecap:butt;stroke-linejoin:miter;stroke-miterlimit:10;stroke-dasharray:none;stroke-opacity:1"
               d="m 201.7,468.13 1.64,-7.66 1.64,3.56 3.82,0.82001 z" />
            <path
               inkscape:connector-curvature="0"
               id="path1069"
               style="fill:none;stroke:#000000;stroke-width:1;stroke-linecap:butt;stroke-linejoin:miter;stroke-miterlimit:10;stroke-dasharray:none;stroke-opacity:1"
               d="m 361,419 36.01999,45.03" />
            <path
               inkscape:connector-curvature="0"
               id="path1071"
               style="fill:#000000;fill-opacity:1;fill-rule:nonzero;stroke:none"
               d="m 400.29999,468.13 -7.09998,-3.27999 3.81998,-0.82001 1.64001,-3.56 z" />
            <path
               inkscape:connector-curvature="0"
               id="path1073"
               style="fill:none;stroke:#000000;stroke-width:1;stroke-linecap:butt;stroke-linejoin:miter;stroke-miterlimit:10;stroke-dasharray:none;stroke-opacity:1"
               d="m 400.29999,468.13 -7.09998,-3.27999 3.81998,-0.82001 1.64001,-3.56 z" />
            <path
               inkscape:connector-curvature="0"
               id="path1075"
               style="fill:#ffffff;fill-opacity:1;fill-rule:nonzero;stroke:none"
               d="m 481,189 h 120 v 40 H 481 Z" />
            <path
               inkscape:connector-curvature="0"
               id="path1077"
               style="fill:none;stroke:#000000;stroke-width:1;stroke-linecap:butt;stroke-linejoin:miter;stroke-miterlimit:10;stroke-dasharray:none;stroke-opacity:1"
               d="m 481,189 h 120 v 40 H 481 Z" />
          </g>
          <g
             transform="matrix(2.9914529,0,0,2.9914529,1474.7863,604.2735)"
             id="g1079">
            <text
               id="text1083"
               style="font-variant:normal;font-weight:normal;font-size:14px;font-family:Helvetica;-inkscape-font-specification:Helvetica;writing-mode:lr-tb;fill:#000000;fill-opacity:1;fill-rule:nonzero;stroke:none"
               transform="translate(0.734375,13)">
              <tspan
                 id="tspan1081"
                 sodipodi:role="line"
                 y="0"
                 x="0 7 14.786133 22.572266 26.461914 34.248047 38.137695 42.027344 49.813477 57.599609 65.385742 73.171875 77.061523 84.847656 92.633789">chatette_output</tspan>
            </text>
          </g>
          <g
             transform="matrix(2.9914529,0,0,2.9914529,1.4957265,1.4957265)"
             id="g1085">
            <path
               inkscape:connector-curvature="0"
               id="path1087"
               style="fill:#000000;fill-opacity:1;fill-rule:nonzero;stroke:none"
               d="m 381.23508,159.54678 -0.39252,-0.91974 0.91974,-0.39251 0.39252,0.91974 z m -0.78504,-1.83946 -0.39254,-0.91975 0.91973,-0.39255 0.39255,0.91975 z m 0.53101,-2.07313 0.91916,-0.39388 0.39386,0.91916 -0.91916,0.39387 z m 1.83832,-0.78775 0.91919,-0.39388 0.39386,0.91916 -0.91919,0.39387 z m 1.83834,-0.78776 0.91916,-0.39387 0.39386,0.91916 -0.91916,0.39387 z m 1.83832,-0.78776 0.91916,-0.39388 0.39386,0.91916 -0.91916,0.39388 z m 1.83832,-0.78775 0.91916,-0.39388 0.39386,0.91916 -0.91916,0.39388 z m 1.83835,-0.78775 0.91916,-0.39388 0.39386,0.91916 -0.91916,0.39388 z m 1.83832,-0.78775 0.91916,-0.39388 0.39386,0.91916 -0.91916,0.39388 z m 1.83831,-0.78775 0.91916,-0.39389 0.39386,0.91916 -0.91916,0.39389 z m 1.83832,-0.78777 0.91919,-0.39387 0.39386,0.91916 -0.91919,0.39387 z m 1.83835,-0.78775 0.91916,-0.39387 0.39386,0.91916 -0.91916,0.39387 z m 1.83832,-0.78775 0.91916,-0.39387 0.39386,0.91916 -0.91916,0.39387 z m 1.83832,-0.78775 0.91916,-0.39387 0.39386,0.91916 -0.91916,0.39387 z m 1.83835,-0.78776 0.91915,-0.39388 0.39386,0.91916 -0.91916,0.39388 z m 1.83831,-0.78775 0.91916,-0.39388 0.39386,0.91916 -0.91916,0.39388 z m 1.83832,-0.78775 0.91916,-0.39388 0.39386,0.91916 -0.91916,0.39388 z m 1.83832,-0.78775 0.91919,-0.39388 0.39386,0.91916 -0.91919,0.39387 z m 1.83835,-0.78775 0.91916,-0.39389 0.39386,0.91915 -0.91916,0.39389 z m 1.83831,-0.78777 0.91916,-0.39387 0.39386,0.91915 -0.91916,0.39388 z m 1.83832,-0.78775 0.91916,-0.39388 0.39386,0.91916 -0.91916,0.39388 z m 1.83835,-0.78775 0.91916,-0.39388 0.39386,0.91916 -0.91916,0.39388 z m 1.83832,-0.78775 0.91916,-0.39387 0.39386,0.91915 -0.91916,0.39388 z m 1.83832,-0.78777 0.91916,-0.39387 0.39386,0.91916 -0.91916,0.39387 z m 1.83831,-0.78775 0.91919,-0.39387 0.39386,0.91916 -0.91919,0.39387 z m 1.83835,-0.78775 0.91916,-0.39387 0.39386,0.91916 -0.91916,0.39387 z m 1.83832,-0.78775 0.91916,-0.39387 0.39386,0.91916 -0.91916,0.39387 z m 1.83832,-0.78775 0.91916,-0.39389 0.39386,0.91916 -0.91916,0.39389 z m 1.83835,-0.78776 0.91916,-0.39388 0.39386,0.91916 -0.91916,0.39388 z m 1.83832,-0.78775 0.91915,-0.39388 0.39386,0.91916 -0.91915,0.39388 z m 1.83828,-0.78775 0.0389,-0.0167 0.19696,0.45958 -0.45971,0.1966 -0.37656,-0.88057 0.91943,-0.39319 0.37656,0.88057 c 0.0543,0.12688 0.0557,0.25438 0.004,0.38248 -0.0513,0.12809 -0.14038,0.21933 -0.26721,0.27369 l -0.0389,0.0167 -0.39392,-0.91916 z m -0.99359,-1.16053 -0.39319,-0.91946 0.91944,-0.39319 0.39318,0.91947 z m -0.78635,-1.83892 -0.39318,-0.91948 0.91943,-0.39319 0.39319,0.91948 z m -0.78634,-1.83895 -0.1976,-0.46209 c -0.0543,-0.12696 -0.0558,-0.25452 -0.004,-0.38268 0.0514,-0.12815 0.14054,-0.21937 0.26752,-0.27365 0.0716,-0.0306 0.14627,-0.0438 0.22403,-0.0395 l 0.49667,0.0273 -0.0549,0.9985 -0.49667,-0.0273 0.0274,-0.49925 0.45972,-0.19658 0.1976,0.46208 -0.91943,0.39319 z m 1.78473,-1.07581 0.99847,0.0549 -0.0549,0.99849 -0.99847,-0.0548 0.0549,-0.9985 z m 1.99695,0.10969 0.9985,0.0549 -0.0548,0.99849 -0.9985,-0.0548 0.0548,-0.9985 z m 1.99697,0.1097 0.99851,0.0548 -0.0548,0.9985 -0.99851,-0.0548 z m 1.99704,0.1097 0.99848,0.0548 -0.0549,0.9985 -0.99848,-0.0548 0.0549,-0.99849 z m 1.99698,0.10967 0.99851,0.0548 -0.0549,0.99851 -0.99851,-0.0549 0.0549,-0.9985 z m 1.99698,0.10969 0.99851,0.0549 -0.0549,0.9985 -0.99851,-0.0548 0.0549,-0.99851 z m 1.99701,0.1097 0.99848,0.0548 -0.0549,0.9985 -0.99847,-0.0548 0.0549,-0.9985 z m 1.99695,0.10969 0.9985,0.0548 -0.0548,0.99851 -0.9985,-0.0548 z m 1.99701,0.10968 0.9985,0.0549 -0.0549,0.9985 -0.9985,-0.0549 0.0549,-0.99851 z m 1.99701,0.1097 0.92193,0.0506 c 0.13785,0.008 0.25284,0.0628 0.34494,0.16562 0.0921,0.10283 0.13443,0.22319 0.12687,0.36106 -0.006,0.11245 -0.0458,0.21151 -0.11893,0.29716 l -0.0498,0.0583 -0.76062,-0.64917 0.0498,-0.0583 0.38031,0.32459 -0.0274,0.49925 -0.92193,-0.0507 0.0549,-0.9985 z m 0.57605,1.69348 -0.64905,0.76074 -0.76074,-0.64904 0.64905,-0.76075 z m -1.2981,1.5215 -0.64908,0.76074 -0.76074,-0.64907 0.64908,-0.76075 z m -1.29812,1.52147 -0.64905,0.76074 -0.76074,-0.64904 0.64904,-0.76075 z m -1.2981,1.5215 -0.64908,0.76074 -0.76074,-0.64908 0.64908,-0.76074 z m -1.29813,1.52147 -0.64904,0.76074 -0.76075,-0.64905 0.64905,-0.76074 z m -1.29809,1.52148 -0.64905,0.76075 -0.76074,-0.64905 0.64905,-0.76074 z m -1.29813,1.52149 -0.64905,0.76074 -0.76074,-0.64905 0.64905,-0.76074 z m -1.29809,1.52148 -0.64905,0.76074 -0.76074,-0.64904 0.64904,-0.76075 z m -1.29813,1.52149 -0.64905,0.76074 -0.76074,-0.64905 0.64905,-0.76074 z m -1.2981,1.52147 -0.64904,0.76074 -0.76075,-0.64905 0.64905,-0.76074 z m -1.96954,0.28209 -0.39505,-0.91866 0.91864,-0.39505 0.39505,0.91865 z m -0.7901,-1.83733 -0.39505,-0.91866 0.91864,-0.39505 0.39505,0.91866 z m -0.79007,-1.83731 -0.39505,-0.91867 0.91864,-0.39505 0.39505,0.91867 z m -0.24255,-1.30313 -0.91919,0.39381 -0.3938,-0.91919 0.91919,-0.39381 z m -1.83838,0.78763 -0.91919,0.39381 -0.3938,-0.91919 0.91919,-0.39381 z m -1.83838,0.78762 -0.91919,0.39382 -0.3938,-0.91919 0.91919,-0.39382 z m -1.83838,0.78763 -0.91919,0.39382 -0.3938,-0.91919 0.91919,-0.39382 z m -1.83841,0.78763 -0.91919,0.39381 -0.3938,-0.91919 0.91919,-0.39381 z m -1.83838,0.78763 -0.91919,0.39381 -0.3938,-0.91919 0.91919,-0.39381 z m -1.83838,0.78763 -0.91919,0.39381 -0.39379,-0.91919 0.91918,-0.39381 z m -1.83838,0.78762 -0.91918,0.39382 -0.3938,-0.91919 0.91919,-0.39382 z m -1.83837,0.78763 -0.91919,0.3938 -0.3938,-0.91919 0.91919,-0.3938 z m -1.83838,0.78762 -0.91919,0.39381 -0.3938,-0.91919 0.91919,-0.39381 z m -1.83838,0.78762 -0.91919,0.39382 -0.3938,-0.91919 0.91919,-0.39382 z m -1.83838,0.78763 -0.91919,0.39382 -0.3938,-0.91919 0.91919,-0.39382 z m -1.83838,0.78763 -0.91919,0.39381 -0.3938,-0.91919 0.91919,-0.39381 z m -1.83838,0.78763 -0.91919,0.39381 -0.3938,-0.91919 0.91919,-0.39381 z m -1.83838,0.78763 -0.91919,0.39381 -0.3938,-0.91919 0.91919,-0.39381 z m -1.83838,0.78762 -0.91919,0.39382 -0.3938,-0.91919 0.91919,-0.39382 z m -1.83838,0.78763 -0.91919,0.39382 -0.39379,-0.91919 0.91919,-0.39382 z m -1.83837,0.78763 -0.91919,0.39381 -0.3938,-0.91918 0.91919,-0.39382 z m -1.83838,0.78763 -0.91922,0.39381 -0.3938,-0.91919 0.91922,-0.39381 z m -1.83841,0.78761 -0.91919,0.39382 -0.3938,-0.91919 0.91919,-0.39382 z m -1.83838,0.78763 -0.91919,0.39381 -0.3938,-0.91918 0.91919,-0.39382 z m -1.83838,0.78763 -0.91919,0.39381 -0.3938,-0.91919 0.91919,-0.39381 z m -1.83838,0.78763 -0.91919,0.39381 -0.3938,-0.91919 0.91919,-0.39381 z m -1.83838,0.78762 -0.91919,0.39382 -0.3938,-0.91919 0.91919,-0.39381 z m -1.83838,0.78763 -0.91919,0.39382 -0.3938,-0.91919 0.91919,-0.39382 z m -1.83838,0.78763 -0.91919,0.39381 -0.39379,-0.91918 0.91918,-0.39382 z m -1.83838,0.78763 -0.91918,0.39381 -0.3938,-0.91919 0.91919,-0.39381 z m -1.83837,0.78763 -0.91919,0.39381 -0.3938,-0.91919 0.91919,-0.39381 z m -1.83838,0.78763 -0.59473,0.25479 c -0.12692,0.0544 -0.25449,0.0559 -0.38266,0.005 -0.1282,-0.0513 -0.21948,-0.14039 -0.27383,-0.2673 -10e-5,-2.1e-4 -1.9e-4,-4.2e-4 -2.8e-4,-6.4e-4 l -0.39252,-0.91974 0.91974,-0.39252 0.39252,0.91974 -0.45987,0.19626 -0.1969,-0.45959 0.59473,-0.25479 0.3938,0.91919 z" />
            <path
               inkscape:connector-curvature="0"
               id="path1089"
               style="fill:none;stroke:#000000;stroke-width:1;stroke-linecap:butt;stroke-linejoin:miter;stroke-miterlimit:10;stroke-dasharray:none;stroke-opacity:1"
               d="M 471,209 387.04001,181.00999" />
            <path
               inkscape:connector-curvature="0"
               id="path1091"
               style="fill:#000000;fill-opacity:1;fill-rule:nonzero;stroke:none"
               d="m 382.06,179.35001 7.75,-1.10001 -2.76999,2.75999 0.54999,3.88001 z" />
            <path
               inkscape:connector-curvature="0"
               id="path1093"
               style="fill:none;stroke:#000000;stroke-width:1;stroke-linecap:butt;stroke-linejoin:miter;stroke-miterlimit:10;stroke-dasharray:none;stroke-opacity:1"
               d="m 382.06,179.35001 7.75,-1.10001 -2.76999,2.75999 0.54999,3.88001 z" />
            <path
               inkscape:connector-curvature="0"
               id="path1095"
               style="fill:#ffffff;fill-opacity:1;fill-rule:nonzero;stroke:none"
               d="m 621,123 c 6e-5,0.98254 -0.12836,1.96272 -0.38519,2.94052 -0.25684,0.9778 -0.64087,1.94853 -1.15204,2.91217 -0.51117,0.96367 -1.14697,1.9156 -1.90753,2.85584 -0.76062,0.94023 -1.64228,1.86422 -2.64496,2.77195 -1.00263,0.90777 -2.12152,1.79489 -3.35669,2.66143 -1.23511,0.8665 -2.58051,1.70823 -4.03613,2.52517 -1.45563,0.81696 -3.01453,1.6052 -4.6767,2.3647 -1.66217,0.75953 -3.41956,1.48667 -5.27228,2.18142 -1.85266,0.69476 -3.79169,1.3538 -5.81708,1.97712 -2.02539,0.62331 -4.12732,1.2079 -6.30584,1.75376 -2.17847,0.54585 -4.4231,1.05037 -6.73383,1.51355 -2.31073,0.46315 -4.67645,0.88273 -7.09711,1.25872 -2.42059,0.37603 -4.88458,0.70664 -7.3919,0.99184 -2.50727,0.28522 -5.04578,0.52367 -7.61554,0.71535 -2.56977,0.19168 -5.15833,0.33568 -7.76581,0.43199 C 546.23389,152.95184 543.62006,153 541,153 c -2.62012,0 -5.23389,-0.0482 -7.84137,-0.14447 -2.60748,-0.0963 -5.19611,-0.24031 -7.76593,-0.43199 -2.5697,-0.19168 -5.10822,-0.43013 -7.61554,-0.71535 -2.50726,-0.2852 -4.97119,-0.61581 -7.39191,-0.99184 -2.42062,-0.37599 -4.78631,-0.79557 -7.09704,-1.25872 -2.31073,-0.46318 -4.55536,-0.9677 -6.73392,-1.51355 -2.17853,-0.54586 -4.28046,-1.13045 -6.30582,-1.75376 -2.02536,-0.62332 -3.96438,-1.28236 -5.81707,-1.97712 -1.8527,-0.69475 -3.61011,-1.42189 -5.27228,-2.18142 -1.66217,-0.7595 -3.2211,-1.54774 -4.67676,-2.3647 -1.45566,-0.81694 -2.80102,-1.65867 -4.0361,-2.52519 -1.23511,-0.86652 -2.35401,-1.75364 -3.35669,-2.66141 -1.00266,-0.90773 -1.88425,-1.83171 -2.64481,-2.77194 -0.76056,-0.94023 -1.39642,-1.89216 -1.90762,-2.85583 -0.51114,-0.96366 -0.89511,-1.93439 -1.15192,-2.91219 -0.2568,-0.9778 -0.38519,-1.95798 -0.38522,-2.94052 3e-5,-0.98254 0.12842,-1.96271 0.38522,-2.94051 0.25681,-0.97781 0.64078,-1.94855 1.15192,-2.91221 0.5112,-0.96366 1.14706,-1.91561 1.90762,-2.85584 0.76056,-0.94022 1.64215,-1.8642 2.64481,-2.77195 1.00268,-0.90774 2.12158,-1.79487 3.35666,-2.6614 1.23511,-0.86652 2.58047,-1.70826 4.03613,-2.5252 1.45566,-0.81695 3.01459,-1.60517 4.67676,-2.36468 1.66217,-0.75952 3.41958,-1.48667 5.27228,-2.18142 1.85269,-0.69476 3.79171,-1.3538 5.81707,-1.977113 2.02536,-0.623314 4.12729,-1.207909 6.30582,-1.753784 2.17856,-0.54586 4.42319,-1.050377 6.73389,-1.513535 2.31076,-0.463165 4.67645,-0.882751 7.09707,-1.258751 2.42072,-0.375991 4.88465,-0.706596 7.39191,-0.991813 2.50732,-0.285217 5.04584,-0.523667 7.61554,-0.715355 2.56982,-0.191673 5.15845,-0.335663 7.76593,-0.431969 C 535.76611,93.048164 538.37988,93.000008 541,93 c 2.62006,8e-6 5.23389,0.04816 7.84137,0.14447 2.60748,0.09631 5.19604,0.240296 7.76581,0.431977 2.56976,0.191688 5.10827,0.430137 7.61554,0.715354 2.50732,0.28521 4.97131,0.615815 7.3919,0.991814 2.42066,0.376 4.78638,0.795586 7.09711,1.258751 2.31073,0.463158 4.55536,0.967674 6.73383,1.513535 2.17852,0.545867 4.28045,1.130462 6.30584,1.753776 2.02539,0.623313 3.96442,1.282353 5.81708,1.977113 1.85272,0.69475 3.61011,1.42189 5.27228,2.1814 1.66217,0.75951 3.22107,1.54773 4.6767,2.36468 1.45562,0.81696 2.80102,1.6587 4.03613,2.52522 1.23517,0.86653 2.35406,1.75366 3.35669,2.6614 1.00268,0.90775 1.88434,1.83174 2.64496,2.77196 0.76056,0.94022 1.39636,1.89217 1.90753,2.85583 0.51117,0.96366 0.8952,1.9344 1.15204,2.91221 0.25683,0.9778 0.38525,1.95797 0.38519,2.94051 z" />
            <path
               inkscape:connector-curvature="0"
               id="path1097"
               style="fill:none;stroke:#000000;stroke-width:1;stroke-linecap:butt;stroke-linejoin:miter;stroke-miterlimit:10;stroke-dasharray:none;stroke-opacity:1"
               d="m 621,123 c 6e-5,0.98254 -0.12836,1.96272 -0.38519,2.94052 -0.25684,0.9778 -0.64087,1.94853 -1.15204,2.91217 -0.51117,0.96367 -1.14697,1.9156 -1.90753,2.85584 -0.76062,0.94023 -1.64228,1.86422 -2.64496,2.77195 -1.00263,0.90777 -2.12152,1.79489 -3.35669,2.66143 -1.23511,0.8665 -2.58051,1.70823 -4.03613,2.52517 -1.45563,0.81696 -3.01453,1.6052 -4.6767,2.3647 -1.66217,0.75953 -3.41956,1.48667 -5.27228,2.18142 -1.85266,0.69476 -3.79169,1.3538 -5.81708,1.97712 -2.02539,0.62331 -4.12732,1.2079 -6.30584,1.75376 -2.17847,0.54585 -4.4231,1.05037 -6.73383,1.51355 -2.31073,0.46315 -4.67645,0.88273 -7.09711,1.25872 -2.42059,0.37603 -4.88458,0.70664 -7.3919,0.99184 -2.50727,0.28522 -5.04578,0.52367 -7.61554,0.71535 -2.56977,0.19168 -5.15833,0.33568 -7.76581,0.43199 C 546.23389,152.95184 543.62006,153 541,153 c -2.62012,0 -5.23389,-0.0482 -7.84137,-0.14447 -2.60748,-0.0963 -5.19611,-0.24031 -7.76593,-0.43199 -2.5697,-0.19168 -5.10822,-0.43013 -7.61554,-0.71535 -2.50726,-0.2852 -4.97119,-0.61581 -7.39191,-0.99184 -2.42062,-0.37599 -4.78631,-0.79557 -7.09704,-1.25872 -2.31073,-0.46318 -4.55536,-0.9677 -6.73392,-1.51355 -2.17853,-0.54586 -4.28046,-1.13045 -6.30582,-1.75376 -2.02536,-0.62332 -3.96438,-1.28236 -5.81707,-1.97712 -1.8527,-0.69475 -3.61011,-1.42189 -5.27228,-2.18142 -1.66217,-0.7595 -3.2211,-1.54774 -4.67676,-2.3647 -1.45566,-0.81694 -2.80102,-1.65867 -4.0361,-2.52519 -1.23511,-0.86652 -2.35401,-1.75364 -3.35669,-2.66141 -1.00266,-0.90773 -1.88425,-1.83171 -2.64481,-2.77194 -0.76056,-0.94023 -1.39642,-1.89216 -1.90762,-2.85583 -0.51114,-0.96366 -0.89511,-1.93439 -1.15192,-2.91219 -0.2568,-0.9778 -0.38519,-1.95798 -0.38522,-2.94052 3e-5,-0.98254 0.12842,-1.96271 0.38522,-2.94051 0.25681,-0.97781 0.64078,-1.94855 1.15192,-2.91221 0.5112,-0.96366 1.14706,-1.91561 1.90762,-2.85584 0.76056,-0.94022 1.64215,-1.8642 2.64481,-2.77195 1.00268,-0.90774 2.12158,-1.79487 3.35666,-2.6614 1.23511,-0.86652 2.58047,-1.70826 4.03613,-2.5252 1.45566,-0.81695 3.01459,-1.60517 4.67676,-2.36468 1.66217,-0.75952 3.41958,-1.48667 5.27228,-2.18142 1.85269,-0.69476 3.79171,-1.3538 5.81707,-1.977113 2.02536,-0.623314 4.12729,-1.207909 6.30582,-1.753784 2.17856,-0.54586 4.42319,-1.050377 6.73389,-1.513535 2.31076,-0.463165 4.67645,-0.882751 7.09707,-1.258751 2.42072,-0.375991 4.88465,-0.706596 7.39191,-0.991813 2.50732,-0.285217 5.04584,-0.523667 7.61554,-0.715355 2.56982,-0.191673 5.15845,-0.335663 7.76593,-0.431969 C 535.76611,93.048164 538.37988,93.000008 541,93 c 2.62006,8e-6 5.23389,0.04816 7.84137,0.14447 2.60748,0.09631 5.19604,0.240296 7.76581,0.431977 2.56976,0.191688 5.10827,0.430137 7.61554,0.715354 2.50732,0.28521 4.97131,0.615815 7.3919,0.991814 2.42066,0.376 4.78638,0.795586 7.09711,1.258751 2.31073,0.463158 4.55536,0.967674 6.73383,1.513535 2.17852,0.545867 4.28045,1.130462 6.30584,1.753776 2.02539,0.623313 3.96442,1.282353 5.81708,1.977113 1.85272,0.69475 3.61011,1.42189 5.27228,2.1814 1.66217,0.75951 3.22107,1.54773 4.6767,2.36468 1.45562,0.81696 2.80102,1.6587 4.03613,2.52522 1.23517,0.86653 2.35406,1.75366 3.35669,2.6614 1.00268,0.90775 1.88434,1.83174 2.64496,2.77196 0.76056,0.94022 1.39636,1.89217 1.90753,2.85583 0.51117,0.96366 0.8952,1.9344 1.15204,2.91221 0.25683,0.9778 0.38525,1.95797 0.38519,2.94051 z" />
            <path
               inkscape:connector-curvature="0"
               id="path1099"
               style="fill:none;stroke:#000000;stroke-width:1;stroke-linecap:butt;stroke-linejoin:miter;stroke-miterlimit:10;stroke-dasharray:none;stroke-opacity:1"
               d="m 617,123 c 6e-5,0.85154 -0.12195,1.70102 -0.36591,2.54845 -0.24401,0.84743 -0.60882,1.68873 -1.09442,2.52389 -0.48553,0.83518 -1.0896,1.66019 -1.81219,2.47505 -0.7226,0.81487 -1.56012,1.61565 -2.51264,2.40236 -0.95251,0.78671 -2.01544,1.55556 -3.18884,2.30655 -1.17334,0.75099 -2.45148,1.48049 -3.83435,2.18851 -1.38287,0.70802 -2.86377,1.39117 -4.44281,2.04942 -1.5791,0.65825 -3.24866,1.28842 -5.00873,1.89054 -1.76007,0.60212 -3.60211,1.17329 -5.52624,1.7135 -1.92414,0.5402 -3.92096,1.04684 -5.9906,1.51992 -2.06958,0.47309 -4.20197,0.91033 -6.39722,1.31174 -2.19513,0.40142 -4.44251,0.76506 -6.74219,1.09093 -2.29962,0.32588 -4.64032,0.61241 -7.02221,0.85959 -2.3819,0.24719 -4.79346,0.45384 -7.23481,0.61996 -2.44122,0.16612 -4.90045,0.29091 -7.37756,0.37439 C 545.97223,148.95827 543.48914,149 541,149 c -2.48907,0 -4.97217,-0.0417 -7.44928,-0.1252 -2.47711,-0.0835 -4.93634,-0.20827 -7.37762,-0.37439 -2.44123,-0.16612 -4.85279,-0.37277 -7.23468,-0.61996 -2.38196,-0.24718 -4.72278,-0.53371 -7.0224,-0.85959 -2.2996,-0.32587 -4.547,-0.68951 -6.74219,-1.09093 -2.19519,-0.40141 -4.32758,-0.83865 -6.39719,-1.31174 -2.06961,-0.47308 -4.06643,-0.97972 -5.99051,-1.51992 -1.9241,-0.54021 -3.76617,-1.11138 -5.52624,-1.7135 -1.76004,-0.60212 -3.4296,-1.23229 -5.00864,-1.89054 -1.57907,-0.65825 -3.06006,-1.3414 -4.44296,-2.04942 -1.38287,-0.70802 -2.66098,-1.43752 -3.83432,-2.18851 -1.17334,-0.75099 -2.2363,-1.51984 -3.18884,-2.30655 -0.95255,-0.78671 -1.79007,-1.58749 -2.51258,-2.40236 -0.72256,-0.81486 -1.32666,-1.63987 -1.81225,-2.47505 -0.48557,-0.83516 -0.85035,-1.67646 -1.09433,-2.52389 C 465.12198,124.70102 465,123.85154 465,123 c 0,-0.85152 0.12198,-1.70101 0.36597,-2.54845 0.24398,-0.84742 0.60876,-1.68872 1.09433,-2.5239 0.48559,-0.83517 1.08969,-1.66018 1.81225,-2.47505 0.72251,-0.81487 1.56003,-1.61566 2.51258,-2.40238 0.95254,-0.7867 2.0155,-1.55554 3.18881,-2.30653 1.17337,-0.75099 2.45148,-1.4805 3.83435,-2.18853 1.3829,-0.70801 2.86389,-1.39114 4.44293,-2.04939 1.57907,-0.65824 3.24863,-1.28842 5.00867,-1.89055 1.76007,-0.60212 3.60214,-1.17329 5.52624,-1.71349 1.92408,-0.54021 3.9209,-1.04686 5.99051,-1.51995 2.06961,-0.47308 4.202,-0.91033 6.39719,-1.31174 2.19519,-0.401407 4.44259,-0.765047 6.74222,-1.090922 2.29965,-0.325859 4.64047,-0.612381 7.02237,-0.859565 2.38189,-0.247185 4.79345,-0.453843 7.23468,-0.619973 2.44128,-0.166122 4.90051,-0.290916 7.37762,-0.374374 C 536.02783,97.04174 538.51093,97.000008 541,97 c 2.48914,8e-6 4.97223,0.04174 7.44928,0.125206 2.47711,0.08346 4.93634,0.208252 7.37756,0.374374 2.44135,0.16613 4.85291,0.372788 7.23481,0.619973 2.38189,0.247184 4.72259,0.533706 7.02221,0.859565 2.29968,0.325875 4.54706,0.689515 6.74219,1.090922 2.19525,0.40141 4.32764,0.83866 6.39722,1.31174 2.06964,0.47309 4.06646,0.97974 5.9906,1.51995 1.92413,0.5402 3.76617,1.11137 5.52624,1.71349 1.76007,0.60213 3.42963,1.23231 5.00873,1.89055 1.57904,0.65825 3.05994,1.34138 4.44281,2.04939 1.38287,0.70803 2.66101,1.43754 3.83435,2.18853 1.1734,0.75099 2.23633,1.51983 3.18884,2.30653 0.95252,0.78672 1.79004,1.58751 2.51264,2.40238 0.72259,0.81486 1.32666,1.63988 1.81219,2.47504 0.4856,0.83518 0.85041,1.67648 1.09442,2.52391 0.24396,0.84744 0.36597,1.69693 0.36591,2.54845 z" />
          </g>
          <g
             transform="matrix(2.9914529,0,0,2.9914529,1549.5726,350)"
             id="g1101">
            <text
               id="text1105"
               style="font-variant:normal;font-weight:normal;font-size:12px;font-family:Helvetica;-inkscape-font-specification:Helvetica;writing-mode:lr-tb;fill:#000000;fill-opacity:1;fill-rule:nonzero;stroke:none"
               transform="translate(0.3125,11)">
              <tspan
                 id="tspan1103"
                 sodipodi:role="line"
                 y="0"
                 x="0 8.6660156 15.339844 22.013672 25.347656 32.021484 35.355469 38.689453">Chatette</tspan>
            </text>
          </g>
          <g
             transform="matrix(2.9914529,0,0,2.9914529,1.4957265,1.4957265)"
             id="g1107">
            <path
               inkscape:connector-curvature="0"
               id="path1109"
               style="fill:#ffffff;fill-opacity:1;fill-rule:nonzero;stroke:none"
               d="M 501,1 H 621 V 41 H 501 Z" />
            <path
               inkscape:connector-curvature="0"
               id="path1111"
               style="fill:none;stroke:#000000;stroke-width:1;stroke-linecap:butt;stroke-linejoin:miter;stroke-miterlimit:10;stroke-dasharray:none;stroke-opacity:1"
               d="M 501,1 H 621 V 41 H 501 Z" />
            <path
               inkscape:connector-curvature="0"
               id="path1113"
               style="fill:#ffffff;fill-opacity:1;fill-rule:nonzero;stroke:none"
               d="M 491,11 H 611 V 51 H 491 Z" />
            <path
               inkscape:connector-curvature="0"
               id="path1115"
               style="fill:none;stroke:#000000;stroke-width:1;stroke-linecap:butt;stroke-linejoin:miter;stroke-miterlimit:10;stroke-dasharray:none;stroke-opacity:1"
               d="M 491,11 H 611 V 51 H 491 Z" />
            <path
               inkscape:connector-curvature="0"
               id="path1117"
               style="fill:#ffffff;fill-opacity:1;fill-rule:nonzero;stroke:none"
               d="M 481,21 H 601 V 61 H 481 Z" />
            <path
               inkscape:connector-curvature="0"
               id="path1119"
               style="fill:none;stroke:#000000;stroke-width:1;stroke-linecap:butt;stroke-linejoin:miter;stroke-miterlimit:10;stroke-dasharray:none;stroke-opacity:1"
               d="M 481,21 H 601 V 61 H 481 Z" />
          </g>
          <g
             transform="matrix(2.9914529,0,0,2.9914529,1444.8718,77.777779)"
             id="g1121">
            <text
               id="text1125"
               style="font-variant:normal;font-weight:normal;font-size:14px;font-family:Helvetica;-inkscape-font-specification:Helvetica;writing-mode:lr-tb;fill:#000000;fill-opacity:1;fill-rule:nonzero;stroke:none"
               transform="translate(27.65625,13)">
              <tspan
                 id="tspan1123"
                 sodipodi:role="line"
                 y="0"
                 x="0 3.8896484 11.675781 23.337891 31.124023 34.234375 42.020508 45.910156 53.696289">templates</tspan>
            </text>
            <text
               id="text1129"
               style="font-variant:normal;font-weight:normal;font-size:14px;font-family:Helvetica;-inkscape-font-specification:Helvetica;writing-mode:lr-tb;fill:#000000;fill-opacity:1;fill-rule:nonzero;stroke:none"
               transform="translate(28.03125,29)">
              <tspan
                 id="tspan1127"
                 sodipodi:role="line"
                 y="0"
                 x="0 7.7861328 15.572266 23.358398 30.358398 34.248047 37.358398 45.144531 52.930664">questions</tspan>
            </text>
          </g>
        </g>
      </g>
    </g>
  </g>
</svg>
